ffmpeg started on 2025-06-28 at 17:54:02
Report written to "D:\Convert\FFMetrics\reports\psnr_report-6.txt"
Log level: 32
Command line:
ffmpeg -hide_banner -nostdin -i "G:\\\xc0\xed\xe8\xec\xe5\\\xce\xed\xe3\xee\xe8\xed\xe3\xe8\\!_37_\xc7\xe8\xec\xe0_2025\\JamClub\\100 \xe4\xe5\xe2\xf3\xf8\xe5\xea, \xea\xee\xf2\xee\xf0\xfb\xe5 \xee\xf7\xe5\xed\xfc-\xee\xf7\xe5\xed\xfc-\xee\xf7\xe5\xed\xfc-\xee\xf7\xe5\xed\xfc-\xee\xf7\xe5\xed\xfc \xf1\xe8\xeb\xfc\xed\xee \xf2\xe5\xe1\xff \xeb\xfe\xe1\xff\xf2\\\xd2\xc2-2\\JamClub_The_100_Girlfriends_Who_Really_Really_Really_Really_REALLY_2_03_HEVC.mkv" -i "G:\\\xc0\xed\xe8\xec\xe5\\\xce\xed\xe3\xee\xe8\xed\xe3\xe8\\!_37_\xc7\xe8\xec\xe0_2025\\JamClub\\100 \xe4\xe5\xe2\xf3\xf8\xe5\xea, \xea\xee\xf2\xee\xf0\xfb\xe5 \xee\xf7\xe5\xed\xfc-\xee\xf7\xe5\xed\xfc-\xee\xf7\xe5\xed\xfc-\xee\xf7\xe5\xed\xfc-\xee\xf7\xe5\xed\xfc \xf1\xe8\xeb\xfc\xed\xee \xf2\xe5\xe1\xff \xeb\xfe\xe1\xff\xf2\\\xd2\xc2-2\\JamClub_The_100_Girlfriends_Who_Really_Really_Really_Really_REALLY_2_03.mp4" -lavfi "[0:v]settb=AVTB,setpts=PTS-STARTPTS,format=pix_fmts=yuv420p10,fps=24000/1001,scale=1920:1080:flags=bicubic[main];[1:v]settb=AVTB,setpts=PTS-STARTPTS,format=pix_fmts=yuv420p,fps=24000/1001,scale=1920:1080:flags=bicubic[ref];[main][ref]psnr=eof_action=endall:stats_file='D\\:/Convert/FFMetrics/logs/psnr_logfile-6.txt'" -f null -
Input #0, matroska,webm, from 'G:\Аниме\Онгоинги\!_37_Зима_2025\JamClub\100 девушек, которые очень-очень-очень-очень-очень сильно тебя любят\ТВ-2\JamClub_The_100_Girlfriends_Who_Really_Really_Really_Really_REALLY_2_03_HEVC.mkv':
  Metadata:
    COMPATIBLE_BRANDS: isomiso2avc1mp41
    MAJOR_BRAND     : isom
    MINOR_VERSION   : 512
    ENCODER         : Lavf61.7.100
  Duration: 00:24:12.31, start: -0.001000, bitrate: 1503 kb/s
  Stream #0:0: Video: hevc (Main 10), yuv420p10le(tv, bt709, progressive), 1920x1080 [SAR 1:1 DAR 16:9], 23.98 fps, 23.98 tbr, 1k tbn (default)
      Metadata:
        HANDLER_NAME    : VideoHandler
        VENDOR_ID       : [0][0][0][0]
        ENCODER         : Lavc61.19.100 libx265
        BPS             : 1306975
        DURATION        : 00:24:12.242708333
        NUMBER_OF_FRAMES: 34819
        NUMBER_OF_BYTES : 237255541
        _STATISTICS_WRITING_APP: mkvpropedit v66.0.0 ('Josie') 64-bit
        _STATISTICS_WRITING_DATE_UTC: 2025-06-28 12:41:01
        _STATISTICS_TAGS: BPS DURATION NUMBER_OF_FRAMES NUMBER_OF_BYTES
  Stream #0:1(eng): Audio: aac (LC), 48000 Hz, stereo, fltp (default)
      Metadata:
        HANDLER_NAME    : SoundHandler
        VENDOR_ID       : [0][0][0][0]
        ENCODER         : Lavc61.19.100 aac
        BPS             : 192728
        DURATION        : 00:24:12.269000000
        NUMBER_OF_FRAMES: 68076
        NUMBER_OF_BYTES : 34986691
        _STATISTICS_WRITING_APP: mkvpropedit v66.0.0 ('Josie') 64-bit
        _STATISTICS_WRITING_DATE_UTC: 2025-06-28 12:41:01
        _STATISTICS_TAGS: BPS DURATION NUMBER_OF_FRAMES NUMBER_OF_BYTES
Input #1, mov,mp4,m4a,3gp,3g2,mj2, from 'G:\Аниме\Онгоинги\!_37_Зима_2025\JamClub\100 девушек, которые очень-очень-очень-очень-очень сильно тебя любят\ТВ-2\JamClub_The_100_Girlfriends_Who_Really_Really_Really_Really_REALLY_2_03.mp4':
  Metadata:
    major_brand     : isom
    minor_version   : 512
    compatible_brands: isomiso2avc1mp41
    encoder         : Lavf60.16.100
  Duration: 00:24:12.29, start: 0.000000, bitrate: 4101 kb/s
  Stream #1:0[0x1](und): Video: h264 (High) (avc1 / 0x31637661), yuv420p(progressive), 1920x1080 [SAR 1:1 DAR 16:9], 3903 kb/s, 23.98 fps, 23.98 tbr, 90k tbn (default)
      Metadata:
        handler_name    : VideoHandler
        vendor_id       : [0][0][0][0]
  Stream #1:1[0x2](eng): Audio: aac (LC) (mp4a / 0x6134706D), 48000 Hz, stereo, fltp, 191 kb/s (default)
      Metadata:
        handler_name    : SoundHandler
        vendor_id       : [0][0][0][0]
Stream mapping:
  Stream #0:0 (hevc) -> settb:default
  Stream #1:0 (h264) -> settb:default
  psnr:default -> Stream #0:0 (wrapped_avframe)
  Stream #0:1 -> #0:1 (aac (native) -> pcm_s16le (native))
Output #0, null, to 'pipe:':
  Metadata:
    COMPATIBLE_BRANDS: isomiso2avc1mp41
    MAJOR_BRAND     : isom
    MINOR_VERSION   : 512
    encoder         : Lavf61.7.100
  Stream #0:0: Video: wrapped_avframe, yuv420p10le(tv, bt709, progressive), 1920x1080 [SAR 1:1 DAR 16:9], q=2-31, 200 kb/s, 23.98 fps, 23.98 tbn
      Metadata:
        encoder         : Lavc61.19.100 wrapped_avframe
  Stream #0:1(eng): Audio: pcm_s16le, 48000 Hz, stereo, s16, 1536 kb/s (default)
      Metadata:
        HANDLER_NAME    : SoundHandler
        VENDOR_ID       : [0][0][0][0]
        _STATISTICS_TAGS: BPS DURATION NUMBER_OF_FRAMES NUMBER_OF_BYTES
        BPS             : 192728
        DURATION        : 00:24:12.269000000
        NUMBER_OF_FRAMES: 68076
        NUMBER_OF_BYTES : 34986691
        _STATISTICS_WRITING_APP: mkvpropedit v66.0.0 ('Josie') 64-bit
        _STATISTICS_WRITING_DATE_UTC: 2025-06-28 12:41:01
        encoder         : Lavc61.19.100 pcm_s16le
frame=  116 fps=0.0 q=-0.0 size=N/A time=00:00:04.83 bitrate=N/A speed=9.27x    frame=  276 fps=267 q=-0.0 size=N/A time=00:00:11.51 bitrate=N/A speed=11.2x    frame=  481 fps=309 q=-0.0 size=N/A time=00:00:20.06 bitrate=N/A speed=12.9x    frame=  652 fps=315 q=-0.0 size=N/A time=00:00:27.19 bitrate=N/A speed=13.2x    frame=  885 fps=343 q=-0.0 size=N/A time=00:00:36.91 bitrate=N/A speed=14.3x    frame= 1119 fps=360 q=-0.0 size=N/A time=00:00:46.67 bitrate=N/A speed=  15x    frame= 1351 fps=374 q=-0.0 size=N/A time=00:00:56.34 bitrate=N/A speed=15.6x    frame= 1588 fps=385 q=-0.0 size=N/A time=00:01:06.23 bitrate=N/A speed=16.1x    frame= 1843 fps=396 q=-0.0 size=N/A time=00:01:16.86 bitrate=N/A speed=16.5x    frame= 2055 fps=398 q=-0.0 size=N/A time=00:01:25.71 bitrate=N/A speed=16.6x    frame= 2268 fps=400 q=-0.0 size=N/A time=00:01:34.59 bitrate=N/A speed=16.7x    frame= 2470 fps=399 q=-0.0 size=N/A time=00:01:43.01 bitrate=N/A speed=16.6x    frame= 2686 fps=401 q=-0.0 size=N/A time=00:01:52.02 bitrate=N/A speed=16.7x    frame= 2907 fps=402 q=-0.0 size=N/A time=00:02:01.24 bitrate=N/A speed=16.8x    frame= 3123 fps=403 q=-0.0 size=N/A time=00:02:10.25 bitrate=N/A speed=16.8x    frame= 3287 fps=398 q=-0.0 size=N/A time=00:02:17.09 bitrate=N/A speed=16.6x    frame= 3463 fps=394 q=-0.0 size=N/A time=00:02:24.43 bitrate=N/A speed=16.5x    frame= 3634 fps=391 q=-0.0 size=N/A time=00:02:31.56 bitrate=N/A speed=16.3x    frame= 3841 fps=391 q=-0.0 size=N/A time=00:02:40.20 bitrate=N/A speed=16.3x    frame= 4065 fps=394 q=-0.0 size=N/A time=00:02:49.54 bitrate=N/A speed=16.4x    frame= 4330 fps=399 q=-0.0 size=N/A time=00:03:00.59 bitrate=N/A speed=16.6x    frame= 4582 fps=403 q=-0.0 size=N/A time=00:03:11.10 bitrate=N/A speed=16.8x    frame= 4801 fps=404 q=-0.0 size=N/A time=00:03:20.24 bitrate=N/A speed=16.9x    frame= 5066 fps=408 q=-0.0 size=N/A time=00:03:31.29 bitrate=N/A speed=  17x    frame= 5324 fps=412 q=-0.0 size=N/A time=00:03:42.05 bitrate=N/A speed=17.2x    frame= 5587 fps=416 q=-0.0 size=N/A time=00:03:53.02 bitrate=N/A speed=17.3x    frame= 5841 fps=418 q=-0.0 size=N/A time=00:04:03.61 bitrate=N/A speed=17.4x    frame= 6081 fps=420 q=-0.0 size=N/A time=00:04:13.62 bitrate=N/A speed=17.5x    frame= 6312 fps=421 q=-0.0 size=N/A time=00:04:23.26 bitrate=N/A speed=17.6x    frame= 6553 fps=422 q=-0.0 size=N/A time=00:04:33.31 bitrate=N/A speed=17.6x    frame= 6789 fps=424 q=-0.0 size=N/A time=00:04:43.15 bitrate=N/A speed=17.7x    frame= 7023 fps=425 q=-0.0 size=N/A time=00:04:52.91 bitrate=N/A speed=17.7x    frame= 7283 fps=427 q=-0.0 size=N/A time=00:05:03.76 bitrate=N/A speed=17.8x    frame= 7530 fps=429 q=-0.0 size=N/A time=00:05:14.06 bitrate=N/A speed=17.9x    frame= 7763 fps=429 q=-0.0 size=N/A time=00:05:23.78 bitrate=N/A speed=17.9x    frame= 8023 fps=431 q=-0.0 size=N/A time=00:05:34.62 bitrate=N/A speed=  18x    frame= 8280 fps=433 q=-0.0 size=N/A time=00:05:45.34 bitrate=N/A speed=18.1x    frame= 8528 fps=435 q=-0.0 size=N/A time=00:05:55.68 bitrate=N/A speed=18.1x    frame= 8794 fps=436 q=-0.0 size=N/A time=00:06:06.78 bitrate=N/A speed=18.2x    frame= 9052 fps=438 q=-0.0 size=N/A time=00:06:17.54 bitrate=N/A speed=18.3x    frame= 9296 fps=439 q=-0.0 size=N/A time=00:06:27.72 bitrate=N/A speed=18.3x    frame= 9548 fps=440 q=-0.0 size=N/A time=00:06:38.23 bitrate=N/A speed=18.4x    frame= 9792 fps=441 q=-0.0 size=N/A time=00:06:48.40 bitrate=N/A speed=18.4x    frame=10017 fps=441 q=-0.0 size=N/A time=00:06:57.79 bitrate=N/A speed=18.4x    frame=10215 fps=439 q=-0.0 size=N/A time=00:07:06.05 bitrate=N/A speed=18.3x    frame=10437 fps=439 q=-0.0 size=N/A time=00:07:15.30 bitrate=N/A speed=18.3x    frame=10686 fps=440 q=-0.0 size=N/A time=00:07:25.69 bitrate=N/A speed=18.4x    frame=10921 fps=440 q=-0.0 size=N/A time=00:07:35.49 bitrate=N/A speed=18.4x    frame=11166 fps=441 q=-0.0 size=N/A time=00:07:45.71 bitrate=N/A speed=18.4x    frame=11372 fps=441 q=-0.0 size=N/A time=00:07:54.30 bitrate=N/A speed=18.4x    frame=11597 fps=440 q=-0.0 size=N/A time=00:08:03.69 bitrate=N/A speed=18.4x    frame=11835 fps=441 q=-0.0 size=N/A time=00:08:13.61 bitrate=N/A speed=18.4x    frame=12059 fps=441 q=-0.0 size=N/A time=00:08:22.96 bitrate=N/A speed=18.4x    frame=12253 fps=439 q=-0.0 size=N/A time=00:08:31.05 bitrate=N/A speed=18.3x    frame=12444 fps=438 q=-0.0 size=N/A time=00:08:39.01 bitrate=N/A speed=18.3x    frame=12683 fps=439 q=-0.0 size=N/A time=00:08:48.98 bitrate=N/A speed=18.3x    frame=12932 fps=439 q=-0.0 size=N/A time=00:08:59.37 bitrate=N/A speed=18.3x    frame=13146 fps=439 q=-0.0 size=N/A time=00:09:08.29 bitrate=N/A speed=18.3x    frame=13367 fps=439 q=-0.0 size=N/A time=00:09:17.51 bitrate=N/A speed=18.3x    frame=13634 fps=440 q=-0.0 size=N/A time=00:09:28.65 bitrate=N/A speed=18.4x    frame=13895 fps=441 q=-0.0 size=N/A time=00:09:39.53 bitrate=N/A speed=18.4x    frame=14164 fps=443 q=-0.0 size=N/A time=00:09:50.75 bitrate=N/A speed=18.5x    frame=14407 fps=443 q=-0.0 size=N/A time=00:10:00.89 bitrate=N/A speed=18.5x    frame=14644 fps=443 q=-0.0 size=N/A time=00:10:10.77 bitrate=N/A speed=18.5x    frame=14893 fps=444 q=-0.0 size=N/A time=00:10:21.16 bitrate=N/A speed=18.5x    frame=15110 fps=443 q=-0.0 size=N/A time=00:10:30.21 bitrate=N/A speed=18.5x    frame=15354 fps=444 q=-0.0 size=N/A time=00:10:40.38 bitrate=N/A speed=18.5x    frame=15614 fps=445 q=-0.0 size=N/A time=00:10:51.23 bitrate=N/A speed=18.6x    frame=15888 fps=446 q=-0.0 size=N/A time=00:11:02.66 bitrate=N/A speed=18.6x    frame=16146 fps=447 q=-0.0 size=N/A time=00:11:13.42 bitrate=N/A speed=18.6x    frame=16417 fps=448 q=-0.0 size=N/A time=00:11:24.72 bitrate=N/A speed=18.7x    frame=16697 fps=449 q=-0.0 size=N/A time=00:11:36.40 bitrate=N/A speed=18.7x    frame=16930 fps=449 q=-0.0 size=N/A time=00:11:46.12 bitrate=N/A speed=18.7x    frame=17188 fps=450 q=-0.0 size=N/A time=00:11:56.88 bitrate=N/A speed=18.8x    frame=17433 fps=450 q=-0.0 size=N/A time=00:12:07.10 bitrate=N/A speed=18.8x    frame=17647 fps=450 q=-0.0 size=N/A time=00:12:16.02 bitrate=N/A speed=18.8x    frame=17840 fps=449 q=-0.0 size=N/A time=00:12:24.07 bitrate=N/A speed=18.7x    frame=18040 fps=448 q=-0.0 size=N/A time=00:12:32.41 bitrate=N/A speed=18.7x    frame=18274 fps=448 q=-0.0 size=N/A time=00:12:42.17 bitrate=N/A speed=18.7x    frame=18538 fps=449 q=-0.0 size=N/A time=00:12:53.18 bitrate=N/A speed=18.7x    frame=18801 fps=450 q=-0.0 size=N/A time=00:13:04.20 bitrate=N/A speed=18.8x    frame=19038 fps=450 q=-0.0 size=N/A time=00:13:14.04 bitrate=N/A speed=18.8x    frame=19312 fps=451 q=-0.0 size=N/A time=00:13:25.47 bitrate=N/A speed=18.8x    frame=19552 fps=451 q=-0.0 size=N/A time=00:13:35.48 bitrate=N/A speed=18.8x    frame=19821 fps=452 q=-0.0 size=N/A time=00:13:46.70 bitrate=N/A speed=18.8x    frame=20094 fps=453 q=-0.0 size=N/A time=00:13:58.08 bitrate=N/A speed=18.9x    frame=20372 fps=454 q=-0.0 size=N/A time=00:14:09.68 bitrate=N/A speed=18.9x    frame=20639 fps=454 q=-0.0 size=N/A time=00:14:20.81 bitrate=N/A speed=  19x    frame=20926 fps=456 q=-0.0 size=N/A time=00:14:32.78 bitrate=N/A speed=  19x    frame=21170 fps=456 q=-0.0 size=N/A time=00:14:42.96 bitrate=N/A speed=  19x    frame=21433 fps=456 q=-0.0 size=N/A time=00:14:53.93 bitrate=N/A speed=  19x    frame=21702 fps=457 q=-0.0 size=N/A time=00:15:05.15 bitrate=N/A speed=19.1x    frame=21946 fps=457 q=-0.0 size=N/A time=00:15:15.33 bitrate=N/A speed=19.1x    frame=22192 fps=458 q=-0.0 size=N/A time=00:15:25.59 bitrate=N/A speed=19.1x    frame=22415 fps=457 q=-0.0 size=N/A time=00:15:34.89 bitrate=N/A speed=19.1x    frame=22645 fps=457 q=-0.0 size=N/A time=00:15:44.48 bitrate=N/A speed=19.1x    frame=22902 fps=457 q=-0.0 size=N/A time=00:15:55.20 bitrate=N/A speed=19.1x    frame=23164 fps=458 q=-0.0 size=N/A time=00:16:06.13 bitrate=N/A speed=19.1x    frame=23403 fps=458 q=-0.0 size=N/A time=00:16:16.10 bitrate=N/A speed=19.1x    frame=23660 fps=458 q=-0.0 size=N/A time=00:16:26.81 bitrate=N/A speed=19.1x    frame=23870 fps=458 q=-0.0 size=N/A time=00:16:35.57 bitrate=N/A speed=19.1x    frame=24113 fps=458 q=-0.0 size=N/A time=00:16:45.71 bitrate=N/A speed=19.1x    frame=24370 fps=458 q=-0.0 size=N/A time=00:16:56.43 bitrate=N/A speed=19.1x    frame=24608 fps=458 q=-0.0 size=N/A time=00:17:06.35 bitrate=N/A speed=19.1x    frame=24858 fps=459 q=-0.0 size=N/A time=00:17:16.78 bitrate=N/A speed=19.1x    frame=25123 fps=459 q=-0.0 size=N/A time=00:17:27.83 bitrate=N/A speed=19.2x    frame=25387 fps=460 q=-0.0 size=N/A time=00:17:38.84 bitrate=N/A speed=19.2x    frame=25652 fps=460 q=-0.0 size=N/A time=00:17:49.90 bitrate=N/A speed=19.2x    frame=25917 fps=461 q=-0.0 size=N/A time=00:18:00.95 bitrate=N/A speed=19.2x    frame=26169 fps=461 q=-0.0 size=N/A time=00:18:11.46 bitrate=N/A speed=19.2x    frame=26415 fps=461 q=-0.0 size=N/A time=00:18:21.72 bitrate=N/A speed=19.2x    frame=26680 fps=462 q=-0.0 size=N/A time=00:18:32.77 bitrate=N/A speed=19.2x    frame=26916 fps=462 q=-0.0 size=N/A time=00:18:42.62 bitrate=N/A speed=19.3x    frame=27151 fps=461 q=-0.0 size=N/A time=00:18:52.42 bitrate=N/A speed=19.2x    frame=27390 fps=462 q=-0.0 size=N/A time=00:19:02.39 bitrate=N/A speed=19.2x    frame=27648 fps=462 q=-0.0 size=N/A time=00:19:13.15 bitrate=N/A speed=19.3x    frame=27883 fps=462 q=-0.0 size=N/A time=00:19:22.95 bitrate=N/A speed=19.3x    frame=28130 fps=462 q=-0.0 size=N/A time=00:19:33.25 bitrate=N/A speed=19.3x    frame=28377 fps=462 q=-0.0 size=N/A time=00:19:43.55 bitrate=N/A speed=19.3x    frame=28649 fps=463 q=-0.0 size=N/A time=00:19:54.90 bitrate=N/A speed=19.3x    frame=28918 fps=463 q=-0.0 size=N/A time=00:20:06.12 bitrate=N/A speed=19.3x    frame=29199 fps=464 q=-0.0 size=N/A time=00:20:17.84 bitrate=N/A speed=19.3x    frame=29391 fps=463 q=-0.0 size=N/A time=00:20:25.84 bitrate=N/A speed=19.3x    frame=29663 fps=464 q=-0.0 size=N/A time=00:20:37.19 bitrate=N/A speed=19.3x    frame=29856 fps=463 q=-0.0 size=N/A time=00:20:45.24 bitrate=N/A speed=19.3x    frame=30017 fps=462 q=-0.0 size=N/A time=00:20:51.95 bitrate=N/A speed=19.3x    frame=30271 fps=462 q=-0.0 size=N/A time=00:21:02.55 bitrate=N/A speed=19.3x    frame=30539 fps=462 q=-0.0 size=N/A time=00:21:13.73 bitrate=N/A speed=19.3x    frame=30795 fps=463 q=-0.0 size=N/A time=00:21:24.40 bitrate=N/A speed=19.3x    frame=31044 fps=463 q=-0.0 size=N/A time=00:21:34.79 bitrate=N/A speed=19.3x    frame=31237 fps=462 q=-0.0 size=N/A time=00:21:42.84 bitrate=N/A speed=19.3x    frame=31459 fps=462 q=-0.0 size=N/A time=00:21:52.10 bitrate=N/A speed=19.3x    frame=31736 fps=462 q=-0.0 size=N/A time=00:22:03.65 bitrate=N/A speed=19.3x    frame=32006 fps=463 q=-0.0 size=N/A time=00:22:14.91 bitrate=N/A speed=19.3x    frame=32262 fps=463 q=-0.0 size=N/A time=00:22:25.59 bitrate=N/A speed=19.3x    frame=32523 fps=463 q=-0.0 size=N/A time=00:22:36.48 bitrate=N/A speed=19.3x    frame=32753 fps=463 q=-0.0 size=N/A time=00:22:46.07 bitrate=N/A speed=19.3x    frame=32933 fps=463 q=-0.0 size=N/A time=00:22:53.58 bitrate=N/A speed=19.3x    frame=33161 fps=462 q=-0.0 size=N/A time=00:23:03.09 bitrate=N/A speed=19.3x    frame=33405 fps=462 q=-0.0 size=N/A time=00:23:13.26 bitrate=N/A speed=19.3x    frame=33603 fps=462 q=-0.0 size=N/A time=00:23:21.52 bitrate=N/A speed=19.3x    frame=33815 fps=461 q=-0.0 size=N/A time=00:23:30.36 bitrate=N/A speed=19.2x    frame=34015 fps=461 q=-0.0 size=N/A time=00:23:38.70 bitrate=N/A speed=19.2x    frame=34127 fps=459 q=-0.0 size=N/A time=00:23:43.38 bitrate=N/A speed=19.2x    frame=34245 fps=458 q=-0.0 size=N/A time=00:23:48.30 bitrate=N/A speed=19.1x    frame=34355 fps=456 q=-0.0 size=N/A time=00:23:52.88 bitrate=N/A speed=  19x    frame=34471 fps=454 q=-0.0 size=N/A time=00:23:57.72 bitrate=N/A speed=  19x    frame=34639 fps=454 q=-0.0 size=N/A time=00:24:04.73 bitrate=N/A speed=18.9x    [Parsed_psnr_10 @ 0000024369c3a740] PSNR y:47.355061 u:50.479128 v:49.477939 average:48.060508 min:34.664631 max:inf
[out#0/null @ 0000024363172f00] video:14961KiB audio:272304KiB subtitle:0KiB other streams:0KiB global headers:0KiB muxing overhead: unknown
frame=34819 fps=453 q=-0.0 Lsize=N/A time=00:24:12.24 bitrate=N/A speed=18.9x    
